<svg fill="#ff0" height="767.4635" width="1100" xmlns="http://www.w3.org/2000/svg"><path d="m310.87214 516.05161c0-.77704-.24092-1.26389-.53538-1.0819-.29445.18198-.90287-.54867-1.35203-1.62367-.47383-1.13403-1.20451-1.95454-1.74056-1.95454-.73017 0-.78913-.16238-.28117-.77444.49375-.59492.47743-.83005-.0704-1.01438-.56097-.18875-.53644-.45496.11498-1.24763.63106-.76789.6639-1.06296.13802-1.23995-.37956-.12775-.6901-.47467-.6901-.77093s.24559-.38687.54576-.20135c.31295.1934.4055-.0282.21697-.51951-.18083-.47124-.0451-.85679.30178-.85679.4595 0 .47026-.29957.0396-1.10416-.47463-.88688-.41985-1.10417.27839-1.10417.70254 0 .73667-.142.17794-.74011-.71473-.76513-2.10296-.081-1.9217.94714.0468.26569-.20583.59043-.56149.72163-.42535.15691-.5373-.17967-.3271-.98347.17577-.67211.0941-1.09004-.18146-.92873s-.9979.11054-1.60519-.11282c-.87558-.32205-.61842-.48923 1.24219-.80757 1.46315-.25034 2.34634-.6949 2.34634-1.18105 0-.42877.48279-.77959 1.07287-.77959.59006 0 1.41269-.4852 1.82805-1.07821.74471-1.06322 3.55679-2.51409 4.46832-2.30539.25751.059 1.87235-.24712 3.58853-.68017 1.71618-.43306 4.6735-.9625 6.57182-1.17654 1.89833-.21404 3.58994-.61315 3.75914-.88692.16919-.27377.85195-.50332 1.51724-.51013.66527-.007 2.70022-.74655 4.52209-1.64387 1.82187-.89733 3.73259-1.63707 4.24605-1.64388.51346-.007 1.08711-.2608 1.27477-.56445s.0608-.55208-.28186-.55208c-.76513 0-.48927-2.46913.28186-2.52277.30364-.0211 1.6413-.35022 2.97257-.73135 1.33126-.38112 3.02674-.54079 3.76772-.35481.74097.18598 2.13612.0948 3.10033-.2026.9642-.2974 3.13939-.81203 4.83375-1.14361 4.64979-.90995 7.13287-1.67011 7.13287-2.18361 0-.53219-28.32139-.16081-35.33324.46331-3.69427.32881-5.10382.23893-6.62499-.42248-1.06275-.4621-2.0565-.8761-2.20833-.91999-.15182-.0439-1.00208-.37967-1.88947-.74618-.88739-.3665-2.00535-.51376-2.48437-.32724-.47901.18653-7.82717.42832-16.32923.53732-8.50206.10901-16.57626.44559-17.94266.74795-1.3664.30237-5.46125.83819-9.09967 1.19071-3.63841.35253-7.09064.89537-7.67162 1.20629-.58098.31093-2.26972.44874-3.75276.30624-1.48304-.14251-2.83038-.0424-2.9941.22254-.16372.2649-.52894.3387-.8116.164-.28266-.17469-.51393-.0546-.51393.26704 0 .32156-.18633.53536-.41407.4751-.91833-.243-5.65884.76144-5.65884 1.19903 0 .53883-4.17041 1.43455-5.74729 1.23439-.58002-.0736-1.52134.36714-2.09181.97947s-1.46231 1.14268-1.98187 1.17855c-.51954.0358-2.43525.11878-4.25712.18427-1.82187.0654-4.30624.40588-5.52082.75643-1.21458.35057-3.14687.77707-4.29397.9478-1.14711.17071-1.95093.5284-1.78625.79483.51388.83149-.71294 1.04928-10.30478 1.82935-.50969.0414-.88235.31068-.82812.59829.0542.2876-.39829.66914-1.00558.84783-.60729.17871-1.73141.75159-2.49804 1.27309-1.00285.68216-3.09368 1.04779-7.45311 1.30331-3.33257.19533-6.63349.32916-7.33535.2974-.70188-.0317-2.03913.3368-2.97169.81905-.96309.49803-1.84279.65805-2.03637.37042-.47525-.70618-2.41891-1.38448-1.99313-.69558.44874.7261-.0885.68891-1.55843-.10789-2.96686-1.60817-17.01232-.38578-18.47756 1.60812-.45363.61728-.50337 1.0337-.13803 1.15548.31416.10471.57119.41033.57119.67915 0 .26881-.34752.35539-.77227.19239-.42476-.163-.93629-.031-1.13675.29337-.53533.86619 2.77326.74055 4.55883-.17313.81995-.41956 2.60878-.94572 3.97517-1.16924 1.36641-.22354 2.91914-.48708 3.45052-.58567.53138-.0986.96614.14616.96614.54391 0 .51155.6866.66939 2.34635.53941 1.81371-.14203 2.12439-.0551 1.3686.38324-.53777.31184-.85344.76812-.70151 1.01396.32771.53023-2.75894 1.06346-8.73473 1.50895-3.35532.25012-4.45037.15112-4.82227-.43603-.34899-.55098-.48349-.57008-.48962-.0695-.0125 1.0164-3.33089.85224-4.51966-.22358-.55529-.50253-1.00962-.67867-1.00962-.3914 0 .3168-1.792.37297-4.55467.14275-2.50507-.20874-6.41795-.51641-8.69529-.68371-2.27734-.16729-4.95667-.593-5.95406-.946-.9974-.35301-2.43184-.52363-3.18766-.37914-.75581.14448-1.53087.009-1.72236-.30065-.21405-.34634-.0697-.3913.37452-.1167.44958.27785.58868.22984.3681-.12709-.41573-.67267-3.0488-1.28201-6.16496-1.42665-1.8382-.0853-2.21837-.30133-2.26828-1.28874-.0536-1.06035.32717-1.23109 3.58853-1.60913 2.00667-.23259 4.26958-.36915 5.02869-.30346l1.38021.11946-1.46486-.79624c-2.54024-1.38077-5.01719-1.9634-9.85282-2.31761-2.58098-.18905-6.30754-.74947-8.28123-1.24537-4.53949-1.14057-20.290925-1.22803-20.977895-.11649-.23641.38253-.72208.51491-1.07925.29415-.9224-.57006-11.08209-.76201-10.7365-.20283.32324.52303.24098.53188-6.98115.75109-5.09733.15471-7.24892.34334-14.88131 1.3046-3.4802.43832-5.51497.18726-7.50405-.92588-.833-.46618-.65347-.73132 1.35263-1.99772 1.61807-1.02143 3.59483-1.62224 6.57862-1.99942 5.092-.6437 9.95037-1.45459 13.45068-2.24501 2.09374-.47279 2.51134-.76503 2.29195-1.60394-.15747-.60218-.58778-.9032-1.04198-.7289-.42555.16329-.77372.0219-.77372-.31425 0-.33614.43476-.61495.96614-.6196.82567-.007.84573-.0862.13803-.54363-.52375-.33847-.58085-.53829-.15535-.54363.37107-.005.52975-.38117.35384-.83959-.22196-.57841.32888-1.11903 1.81159-1.77797l2.13052-.94685-5.39417-.33282c-2.9668-.18306-6.87968-.30767-8.69529-.27692-1.81561.0308-3.30111.0249-3.30111-.0131 0-.0379.49687-.64188 1.10416-1.34208.60729-.70022 1.10417-1.10516 1.10417-.89988 0 .20529.55945.007 1.24322-.44134.68377-.44803 3.08496-1.10035 5.336-1.4496 2.25102-.34927 5.07671-.98217 6.27928-1.40647 1.2026-.4243 3.08694-.7803 4.18743-.79112 3.07458-.0302 10.81934-2.04398 8.57987-2.2309-.27834-.0232-1.00295-.15656-1.61025-.2963-.60728-.13973-1.40751-.32057-1.77828-.40185-1.26313-.27692-1.34381-.81426-.17781-1.18434.63996-.20312 1.81292-.97111 2.60659-1.70665.79367-.73555 1.99742-1.33735 2.67502-1.33735.67759 0 1.51541-.34152 1.86183-.75892.51762-.62369.0624-.82356-2.55479-1.12166-1.75155-.1995-3.92995-.48307-4.84088-.63013-2.16718-.34986-10.79084-.29927-11.38314.0668-.79908.49387-7.1116.72677-7.1116.26239 0-.24403.37265-.75297.82812-1.13097s.82812-.9467.82812-1.26377-.16347-.41303-.36326-.21324c-.1998.1998-.69667.0865-1.10416-.25163-.41025-.34048-.7409-.3794-.7409-.0872 0 .29021-.37266.52766-.82813.52766-1.32589 0-.96218-.59125.85983-1.39775 2.04899-.90698 1.75559-1.2874-1.54768-2.00675-3.01337-.65623-3.58781-1.68472-1.42733-2.55553 2.23589-.90121 12.74058-2.0709 18.74558-2.0873 2.81473-.008 5.77673-.1794 6.58225-.38157l1.46456-.36758-1.57301-1.28675c-.86515-.70772-1.9931-1.29568-2.50656-1.3066-1.30862-.0278-1.70637-.90596-1.00443-2.21752.74119-1.38492 5.54352-3.87524 7.47303-3.87524.81351 0 1.28389-.23827 1.08995-.55209-.18767-.30364-.79685-.55208-1.35374-.55208-.93533 0-1.97529-1.37829-1.77037-2.34634.2083-.98404-8.55111.11646-9.28416 1.16642-.55987.80192-14.6576 2.89758-16.0435 2.3849l-1.31976-.48821 1.2838-.68706c.70607-.37788 5.29295-1.35541 10.19306-2.17229 8.9666-1.49479 11.14887-2.55011 5.27331-2.55011-1.80537 0-3.46624-.31535-4.00617-.76068-.7669-.6325-1.82872-.64998-6.30153-.10374-8.22451 1.00442-13.00431 1.69431-14.12524 2.03876-.74265.22821-.96599.0646-.82813-.60672.20092-.9784 1.90897-2.12635 4.58672-3.08266 2.30487-.82313.87216-1.54887-2.07487-1.05102-1.2777.21584-3.44105.56745-4.80745.78136l-2.48437.38892 2.07031-1.98402c1.13867-1.0912 2.07031-2.07279 2.07031-2.18131 0-.10851-1.54057-.37159-3.42348-.58461-4.45192-.50369-6.83402-1.75171-6.80318-3.56432.0162-.95591 3.58777-2.23832 6.91103-2.48154 1.36813-.10012 4.47499-.57676 6.90415-1.05918 2.42917-.48242 6.15603-.98892 8.28192-1.12555s5.35556-.51012 7.17706-.82996c11.31249-1.98643 13.85859-2.47536 14.34618-2.75494.29964-.17181-.56989-.58379-1.9323-.91551-1.37102-.33382-2.47709-.92685-2.47709-1.32813 0-.92903 5.56442-2.94709 10.61451-3.84959 2.456615-.43903 4.274225-1.09217 4.869345-1.74978.53266-.58857 2.38079-1.33085 4.20927-1.69059 4.14855-.81617 4.03652-1.59029-.47115-3.2559-.96643-.35711-1.64518-.93661-1.50834-1.28779.31144-.79929 2.87037-2.0187 4.23625-2.0187.56468 0 .87314-.24844.68548-.55209-.18767-.30364-2.18983-.55208-4.44924-.55208-3.72263 0-5.21751-.56446-3.41793-1.29061 1.60799-.64884-6.449035-.29756-10.428565.45466-4.95573.93677-7.65212.54467-7.65212-1.11274 0-.76406 1.44208-1.76729 5.41902-3.76988 3.74638-1.88651 5.19482-2.87354 4.69269-3.1978-.95379-.61591-.0124-1.24562 3.69035-2.46862 5.226455-1.72625 9.372645-4.61988 8.828305-6.16128-.3718-1.05278 1.66526-1.62701 10.08135-2.84181 4.1833-.60383 8.37273-1.48038 9.30983-1.94787.93711-.46748 2.92106-.99586 4.40879-1.17418 4.10222-.49168 11.95159-2.4774 13.17933-3.3341.59894-.41792 1.84113-.77732 2.76041-.79867.91929-.0213 2.1683-.25231 2.77559-.51327.87922-.37781.65427-.49105-1.10416-.5558-4.70571-.17329-7.20273-.63724-7.82662-1.4542-.4259-.55769-1.09125-.72919-1.93229-.49809-1.10382.30332-1.14658.2672-.30662-.25897.53687-.33631 1.4064-.54069 1.93229-.45421.52589.0865 1.29041-.0521 1.69891-.30814.43945-.27536 1.29877-.16783 2.10439.26333 1.06118.56792 1.59211.58479 2.40613.0765.66086-.41271 1.16726-.45368 1.37871-.11153.18382.29743 1.74808.54958 3.47611.56034 1.72804.0107 3.76298.37461 4.52209.80856 1.65381.9454 2.20833 1.01472 2.20833.27604 0-.30364-.38732-.55208-.86071-.55208s-.72461-.2202-.55828-.48932-.21784-.62536-.85371-.79165c-.63586-.16628-1.04818-.62929-.91624-1.0289.24346-.73742 2.7164-1.1695 10.366-1.81117 6.91094-.5797 8.83331-.8917 8.83331-1.43361 0-.28504-.37265-.51825-.82811-.51825-.46007 0-.82813-.49074-.82813-1.10417 0-.80972.36806-1.10416 1.38021-1.10416 1.58811 0 1.85893-.8502.39293-1.23357-.543-.14199-3.33791-.1255-6.21092.0366-8.36759.47223-11.71479.31509-13.4653-.63214-.88916-.48116-1.77584-.77644-1.97041-.65619-.19456.12025-.2511-.48076-.12564-1.33556.27374-1.86516-.50276-2.15607-6.17132-2.31201-3.39261-.0934-3.65593-.17713-2.4769-.78819 1.93967-1.00526 9.0548-2.44797 13.29775-2.69634 2.16843-.12693 4.21673-.58029 4.95357-1.09638 1.56837-1.09854 2.51348-1.11225 3.57388-.0519.47699.477 1.80627.82309 3.13504.81623 4.09184-.0211 19.35869-1.57376 21.43151-2.17963 1.93566-.56577 1.99436-.65711 1.58598-2.46783-.25732-1.14098-.19943-2.10496.14727-2.45166.39373-.39373.37675-.8058-.0546-1.32557-1.3189-1.58917.35887-1.91818 8.41577-1.65035 6.26014.20812 8.213.0941 9.48328-.55369 1.34399-.68536 7.40339-1.63072 11.53718-1.79997.60729-.0248 2.34635-.2673 3.86457-.53876l2.76041-.49355-2.48436-.40159c-1.36641-.22089-5.46562-.27491-9.10936-.12005-3.64374.15485-8.86092.24849-11.59372.20808-2.7328-.0404-8.0742.33121-11.86976.82581-7.51011.97865-15.25506 1.66321-18.58917 1.64307-1.16264-.007-2.26996.20418-2.46068.46936-.19073.26517-1.12237.51383-2.07031.55258-.94794.0388-1.72353.27614-1.72353.52754 0 .25142-.55898.29989-1.24218.10771-.97241-.27352-1.06234-.22349-.41407.23039.71388.49979.69483.58096-.13801.58824-.53138.005-.96615.28546-.96615.62403 0 .37806-.52506.27155-1.36078-.27604-1.51129-.99023-2.17391-1.14571-1.71445-.4023.16632.26912-.19167.61852-.79555.77644-.62839.16433-1.09803.0141-1.09811-.3513-.0001-.36963-.87173-.63842-2.07031-.63842-1.31583 0-2.02306.24185-1.94092.66372.089.45679-.50599.58239-1.90829.40285-2.2983-.29426-4.56565-1.58064-4.57833-2.59751-.006-.43468-.20021-.38067-.54363.15074-.41538.64275-.53707.48015-.54363-.7264-.0108-1.99124.89882-3.69023 1.97581-3.69023.4627 0 .68774-.24844.50008-.55208-.18767-.30365.10822-.5711.65752-.59433 1.81928-.077 2.97474-.4115 4.20486-1.21751 1.10297-.7227 3.69488-.44453 3.69488.39653 0 .15206-.33284.14875-.73966-.008-.40682-.1561-1.09002.14782-1.51823.67539-.67094.82665-.6702.89392.006.48664.60292-.36346.69421-.23879.39536.53999-.23243.60573-.10376 1.19328.32025 1.46232 1.05624.6702 1.94559.54413.98484-.1396-.62313-.44347-.30325-.51629 1.29225-.29417 1.17274.16325 2.57142.0135 3.12964-.33513.764-.47713 1.20575-.46725 1.81775.0407.65195.54108.89137.4812 1.23664-.30925.23549-.53914.38872-1.16657.34051-1.3943-.0482-.22774.26431-.41406.69447-.41406.43017 0 .87683-.28414.99259-.63141.11575-.34727.93931-.70913 1.83011-.8041.8908-.095 1.8972-.5523 2.23646-1.01626.33927-.46397.81819-.66109 1.06428-.43809s.29142-.0293.10076-.56064c-.42677-1.18936.62917-1.30054 1.08441-.11421.28933.754.44606.74414 1.36289-.0856.97873-.88574 1.03641-.87944 1.04439.11416.007.88115.0952.91743.54363.22359.79783-1.23452.68397-1.50342-.79367-1.87427-.93713-.23521-1.31917-.69072-1.25819-1.50015.0972-1.28945 2.02031-2.25337 4.23611-2.12319 2.06536.12139 3.88865-.58911 3.88865-1.51528 0-.5962.54871-.77115 2.07032-.66006 2.22508.1624 5.96844-.45899 7.31507-1.21436.66875-.3751.61563-.47275-.27603-.50742-.6073-.0234-2.34635-.15937-3.86458-.30171-4.69455-.44009-10.93905-.42627-13.19175.0293-1.54648.31269-2.04217.26006-1.7656-.18745.23751-.38428.0882-.50845-.3906-.32471-.45413.17427-1.18696-.3311-1.76959-1.22031-.71131-1.0856-.80482-1.58091-.32845-1.73975.44733-.14907.33916-.47837-.32939-1.00283-.90732-.71172-.84882-.75532.66085-.49302.91092.1583 1.34569.14141.96614-.0376-1.39819-.65913-.62814-1.3375 1.51808-1.3375 1.3941 0 2.21144.25445 2.21677.69009.006.50781.13384.49224.48308-.0589.29819-.47061.60368-.54019.82185-.18721.37061.59966 1.07341.55303 2.79895-.1857.59172-.25332 1.89244-.47719 2.89047-.49746 2.28817-.0464 3.03108-1.41704.76808-1.41704-.89501 0-1.71759-.35898-1.89763-.82812-.21444-.55879.0268-.82813.74163-.82813.58266 0 1.25808-.31054 1.5009-.69009.63313-.98969 2.88302-2.16196 3.46225-1.80395.27032.16704.64752.0514.83825-.25737.19072-.30855 1.03233-.56109 1.87023-.56109s2.87284-.40346 4.52209-.89653c2.60319-.77837 2.83709-.95718 1.77365-1.35606-.67373-.25268-5.28352-.42578-10.24398-.38461-4.96045.0415-9.34362-.12569-9.74036-.3709-.41082-.25391-.88397-.18272-1.0991.16538-.44362.71777-17.60575 1.26191-18.03232.57168-.14995-.24263-.65816-.29322-1.12936-.11236-.58025.22266-.65662.45245-.23665.71197.34105.21079-.135.38325-1.05788.38325-.92287 0-1.67796-.23745-1.67796-.52769 0-.29023-.37866-.21338-.84147.17071-.4628.38408-1.01807.52173-1.23394.30586-.21585-.21587.22492-.86241.9795-1.43677l1.37195-1.04439-1.38021.26534c-1.20947.23247-1.24362.20039-.27603-.25933 1.59223-.75645 4.20892-.67817 5.74282.17187 1.49501.82847 3.36653.55547 3.36653-.49106 0-.48208 1.09013-.69863 3.58853-.71274 2.25153-.0127 3.58854.20571 3.58854.58628 0 .33364.31054.19951.69009-.29805.49848-.65347 1.99323-1.00308 5.38281-1.25899 2.58098-.19487 6.26084-.70478 8.17746-1.13315 1.91663-.42832 4.27677-.80269 5.24478-.83184.968-.0293 3.00219-.39223 4.52042-.80683 2.58849-.70684 2.29622-.73506-4.6927-.45264-4.09921.16563-7.82576.30523-8.28122.31021-.45547.005-6.16953.59145-12.69789 1.30317-6.52837.71177-13.64577 1.37002-15.81643 1.46274-2.17066.0928-3.83295.35494-3.69397.58267s-.81782.41509-2.12624.41626c-1.3084 0-4.61486.36221-7.34766.80205-4.68622.7543-15.7097 1.53218-14.21267 1.00288.38145-.13481.55311-.47241.38148-.7501-.17163-.27768.3858-.51684 1.23874-.53144.85295-.0142 2.42034-.4979 3.48309-1.07412 1.06277-.57617 2.42916-1.2793 3.03646-1.56245 1.9961-.93081 34.5573-6.31753 42.23427-6.98697 2.27733-.19858 8.8609-.85322 14.63016-1.45464 5.76926-.60146 13.38397-1.33461 16.92158-1.62924 3.53762-.29473 7.6274-.89556 9.08839-1.33521 1.91922-.57759 2.762-.62856 3.03704-.18354.3487.56425 6.15702.40976 13.18726-.35069 1.06276-.11499 4.41666-.36425 7.45311-.55395 5.44849-.34038 13.74957-1.4856 18.39591-2.53784 1.31205-.29712 2.61809-.39654 2.90231-.2209.28422.17568 4.13068-.22808 8.54769-.89717 6.53534-.99004 8.26619-1.09072 9.29427-.54043 1.03377.55322 2.35772.4604 7.28548-.51069 8.20288-1.61656 18.90678-3.71812 24.24083-4.75938 2.42916-.47422 5.95833-1.2146 7.84261-1.64521 1.88427-.43067 4.24442-.78179 5.24478-.78032 1.00035 0 2.93678-.35503 4.30319-.79234 2.3028-.73696 7.01758-1.55508 19.59891-3.40078 6.46346-.94819 7.76548-1.16704 14.35413-2.4125 3.03645-.57397 8.00518-1.45361 11.04163-1.95479 3.03645-.50117 6.26614-1.03442 7.17707-1.18501 6.44619-1.06533 7.67382-1.04555 8.95585.14454.69172.64213 1.25766 1.44956 1.25766 1.79428 0 .34473.18633.59737.41407.56143.22773-.0356.98178-.0356 1.67567 0 1.055.0546 1.1712.23428.70952 1.09692-.67585 1.26289-.13522 1.94405.8765 1.1044 1.13835-.94473.87912-.095-.43051 1.41123-.68698.79009-2.06674 1.49848-3.33646 1.71299-1.85385.31323-2.0654.48588-1.47178 1.20112.89094 1.07349.13826 1.14009 35.51603-3.14053 2.42916-.29394 6.77681-.65356 9.66144-.79917 2.88462-.1456 8.1018-.52627 11.59371-.8459 3.49191-.31958 8.088-.67949 10.21352-.7998 2.12551-.12026 4.84701-.47608 6.04776-.79068 1.20076-.31455 5.96436-.58725 10.58576-.6059 4.62142-.0186 8.73193-.14463 9.13448-.27998.99341-.33394 13.93049-1.01167 17.00884-.89102 1.36118.0535 2.85482.44077 3.31919.86099 1.04044.9416 3.69032 1.03598 16.01318.5705 5.66456-.21406 10.86668-.70068 12.57482-1.17636 2.22887-.62071 5.92577-.79063 15.73433-.72315 7.05153.0488 18.78344-.0993 26.07092-.32837 14.76819-.4643 13.97861-.46958 29.26034.1938 9.89408.42949 15.602.44732 24.29161.0759 1.51822-.0649 2.32564-.23164 1.79426-.37051-.53137-.13881-.96614-.51215-.96614-.82954 0-.38071 1.54969-.46767 4.55468-.25551 2.50507.1769 10.02028.57338 16.70048.8811 6.68018.30776 15.25126.8144 19.04682 1.12588 15.24888 1.25146 21.06446 1.69253 28.98428 2.19809 19.80688 1.26455 30.24814 1.76841 41.13013 1.98487 5.01015.0997 11.22104.35053 13.80205.55737 2.58095.20688 6.43174.35386 8.55727.32661 2.12549-.0268 6.34893.19478 9.3854.49346 3.03643.29868 12.87041.65244 21.85313.78618 8.98281.13374 17.42969.4853 18.7708.78125 1.34116.29595 4.39028.67266 6.77588.83711 2.38559.16445 5.11841.42681 6.0729.58301 3.26435.53413 8.36074.89731 15.81357 1.12685 6.56294.2021 12.93975.68721 22.35928 1.70103 1.51826.16333 3.62998.36636 4.69272.45107 1.06275.0848 3.79556.31353 6.0729.50845 2.27735.19492 6.12779.50635 8.55655.69214 2.42871.18569 4.54043.41421 4.69267.50776.15225.0936 1.68965.32017 3.41651.50381 1.72685.18355 3.50366.47339 3.94834.64409.44477.17066 3.00688.38428 5.69356.47476 7.3791.24839 7.36939.24687 7.36939 1.13921 0 .45547.26308.82812.58461.82812.32164 0 .40508-.29062.1855-.64585-.27217-.44043-.0925-.52827.56465-.27607.53018.20346 1.51177.36987 2.18145.36987.82177 0 1.24458.35889 1.30068 1.10415.0994 1.31978-.2002 1.38311-1.30728.27603-1.15556-1.15557-2.44829-1.06895-2.06.13803.19121.59449.13144.72881-.15538.34917-.31767-.42046-1.87285-.49941-4.88276-.2478-5.18121.43306-9.092.31387-16.28644-.49634-2.88461-.32485-6.61118-.72422-8.28125-.88755-1.67001-.16323-3.32646-.39155-3.68081-.50747-.35444-.11582-.78906.16617-.96572.62661-.23794.62012-.76221.74043-2.02124.46387-1.97759-.43437-3.24873-.59951-8.51445-1.10635-2.12554-.20459-4.01323-.46337-4.19483-.57504-.38701-.23794-7.77124-.27706-17.88847-.0947-6.41909.11562-10.94507-.20039-14.32197-1-1.90279-.45054-15.21441-.64546-15.21441-.22271 0 .21739 1.67695.57471 3.72656.7941 2.04961.21943 4.22344.49687 4.83072.61665 4.25996.84023 15.66875 1.78193 24.8437 2.05068 2.12549.0623 4.12724.2814 4.44829.48696.53384.34185 17.4394 1.66011 18.34648 1.43067.21592-.0547 2.25591.0744 4.53325.28686 3.52081.32837 12.51197.98921 14.76822 1.08545.81567.0347.91186.74736.16323 1.21001-.53721.33203-4.69883.40869-8.46494.15591-1.15-.0772-2.29277-.46733-2.5396-.86699-.33384-.54063-1.28252-.63091-3.70606-.35259-1.7915.20576-3.42358.4729-3.62685.5937-.20322.12085-.74634-.15718-1.20698-.61777-.4606-.46055-.9689-.62471-1.12959-.36465-.31187.50454-11.45484.28965-14.68443-.28316-1.06279-.18852-2.93603-.39399-4.16284-.45659s-2.77954-.40766-3.45049-.76675c-.97549-.52202-1.22002-.50512-1.22002.0843 0 .43389-.73813.79668-1.79424.88194-4.36538.35224-10.47558.31884-15.32026-.0837-3.48452-.2895-4.97222-.25332-4.43266.10806 2.17622 1.45713-1.90669 2.17578-8.26524 1.45474-5.63696-.63926-6.64463-.6729-9.08091-.30318-1.25693.19077-3.01967.15005-3.91723-.0905-2.36431-.6335-14.65386-1.75538-20.12676-1.83726-2.58101-.0386-6.30757-.24014-8.28125-.44771-1.97368-.20756-5.94868-.50493-8.8333-.66079s-9.71665-.64863-15.18228-1.09506c-5.46557-.44644-13.59516-.97867-18.06572-1.18267-7.28511-.33247-8.16479-.27559-8.48101.54844-.30073.78374-1.26025.91591-6.5019.8959-3.38208-.0127-7.26714.17802-8.63354.42431l-2.48438.4479 4.14063.61558c2.27734.33857 5.01015.60879 6.0729.60044 1.06274-.009 5.4104.36958 9.66142.83979 4.25103.47017 12.32525 1.13228 17.94268 1.47129 5.61743.33897 10.76616.73521 11.44155.88057.67549.14536 6.26533.50615 12.42187.80171 11.06495.5313 18.81807.96484 24.71978 1.38242 1.67007.11816 7.39917.46641 12.73135.77397 5.33222.30752 10.05254.66978 10.48955.80498.43711.13521 1.29155.43374 1.89883.66338.60727.22964 2.05927.48643 3.22661.5708 1.16728.0844 2.41045.54722 2.7625 1.02867.5083.69516 1.94658.90473 6.98691 1.01806 3.49077.0785 6.59527.29556 6.89893.48218.30366.18667 2.41538.4852 4.69272.66338 10.88653.85181 21.76939 1.54365 26.77593 1.7022 3.03647.0962 9.49585.60869 14.35415 1.13896 4.8583.53023 11.06924 1.04653 13.80205 1.14732 18.91432.69755 34.02057 1.57602 41.95821 2.43994 2.73282.29746 7.52285.70058 10.64453.89585 3.12173.19531 5.80708.56748 5.96748.827.16041.25962-.53037.49214-1.5352.51684-1.00474.0249-2.52817.0957-3.3854.15801-.85723.0622-1.66655-.0616-1.79863-.27524-.13199-.21358-1.15791-.13487-2.27989.1749-1.13867.3144-3.63671.4022-5.65449.19878-1.98804-.20049-12.55835-.46172-23.48955-.58062-10.93125-.11884-23.97418-.37651-28.98433-.57255-8.93033-.34947-11.46089-.1357-5.60259.47319 1.6251.16894 3.0749.42734 3.22177.57422.39375.39375-1.62504 1.36792-3.29965 1.59214-1.95132.26132-2.56704.96069-.89854 1.0206.73384.0264 4.56392.27944 8.51128.56245 3.94741.28301 11.71105.66133 17.2526.84077 9.10947.29493 10.07549.41895 10.07549 1.2938 0 1.21431 2.22256 1.50147 15.61699 2.01773 5.40107.2082 9.94975.58813 10.1081.84438.1584.2562 1.37657.46587 2.70713.46587 4.5356 0 3.26421 1.52446-2.30722 2.76646-1.57261.35053-3.68433.59165-4.69268.53574-6.72397-.37261-4.9602.7144 2.58325 1.59204 3.03643.35332 7.25987.7627 9.38535.90977 2.12554.14707 5.97632.51503 8.55728.81767 2.58101.30269 7.79819.71416 11.59375.91436 4.67397.24658 7.07915.59756 7.45308 1.0875.30585.40083 2.27558.88374 4.41665 1.08291 2.12553.1977 4.11303.66279 4.41669 1.03354.30362.37075 2.36646.8417 4.58414 1.04653 2.21767.20489 4.58896.73736 5.26962 1.18331.77994.51103 3.16763.90068 6.45743 1.05376 7.0934.33012 12.651.95224 12.9591 1.45068.3237.52383-4.5104 1.27212-5.2531.81313-.3046-.18823-.5537-.10673-.5537.18101 0 .28779.8696.68638 1.9323.88574 2.0982.39362 2.4949 1.08041.9662 1.67303-1.804.69934.7206 1.80703 6.3963 2.80634 4.7671.83935 7.7797 1.87673 5.5838 1.92278-2.0639.0433 1.1223 1.01646 4.4391 1.35583 1.9691.20147 3.869.60596 4.2219.89884.3529.29289 2.2129.78557 4.1333 1.09486 5.336.85933 5.2783 1.54977-.1651 1.9776-2.0338.15984-3.8932.63341-4.4524 1.13394-.7845.70228-1.7438.7863-5.2447.45935-7.1188-.66482-8.5282-.53546-9.5966.88092-.5229.69319-.8432 1.43413-.712 1.64653.1313.21239 1.913.56006 3.9594.77259 2.0464.21254 3.9692.58142 4.2729.81977.3036.23836 1.7321.60905 3.1744.82376 3.9583.58927 3.1459 1.36919-1.4262 1.36919-2.2268 0-4.2367.18633-4.4666.41407-.2298.22772-2.5455.41405-5.1459.41405-3.288 0-4.8002.21018-4.9648.69011-.1624.47294.4291.69106 1.8794.69318 1.164.00098 2.9859.23097 4.0486.5095 1.0628.27854 4.0352.66362 6.6054.85572 2.5702.19211 4.9532.58177 5.2956.86591.3423.28414.7672.37187.9441.19496s.8994-.11528 1.6055.13697c.9912.35411.403.53878-2.5808.81031-3.5211.32043-7.5371 1.12612-9.6615 1.93835-1.3481.51544.7485 1.082 7.0391 1.90211 3.1123.40575 5.6588.88511 5.6588 1.06521 0 .18011 1.6149.22465 3.5886.099 2.8839-.18365 3.5885-.0701 3.5885.57837 0 1.00072-1.7474 2.63717-2.8039 2.6258-.6491-.007-.6415-.10094.043-.54364.7047-.45541.6816-.53643-.1553-.54362-.5409-.005-1.1315.37709-1.3123.84831-.2801.72998-1.2783.81405-6.7457.56808-6.8512-.30824-8.5351.0571-7.2729 1.57794 2.114 2.54726 10.7347 5.27844 16.6609 5.27844 3.5804 0 5.4503.66961 5.4503 1.95171 0 .64178-.8832.80599-4.2786.79553-2.3533-.007-5.2724-.27483-6.487-.59464-1.2146-.3198-6.9373-.69401-12.7171-.83157-10.221-.24325-10.5112-.2197-10.5925.85981-.08 1.06172.5939 1.8264 1.7784 2.01805.3037.0491 2.6854.4913 5.2928.9826 8.5331 1.60789 16.1097 2.58732 23.8643 3.08501 7.1845.46109 9.6347 1.09337 8.8923 2.29462-.1695.27419-.5455.3518-.8357.17245s-.4594.003-.3759.40506c.084.40436-.2774.69731-.8085.65545-.5281-.0416-.8409.11746-.695.35352.146.23607-.578.58743-1.6088.78081-2.228.41797-2.7563 1.41311-1.6152 3.04231.6081.86814.673 1.38578.2392 1.90844-.7114.85711-.2468 1.44371 1.1435 1.44371.5567 0 1.0121.1039 1.0121.23088 0 .127.1649.66065.3665 1.1859.3367.87736-.034.92524-4.5547.5889-2.7066-.20136-5.8528-.51376-6.9915-.69422-1.6476-.26112-2.0703-.15232-2.0703.53299 0 .4736-.4004 1.08519-.8899 1.3591-1.2638.70728-.505 3.88831 1.08 4.52763 1.1332.45711 1.1374.48359.086.55386-1.1042.0738-1.1042.0738 0 .54827 1.077.46283-.4275.66066-6.0729.79851-2.3549.0575-4.1407.80064-4.1407 1.72306 0 .49294-.572.79376-1.5182.79846-.835.005-2.083.15885-2.7733.34379-1.1771.3154-1.1943.38235-.276 1.07907.5384.40855 1.6586.75071 2.4893.76037.8306.01 3.1493.88709 5.1526 1.94984 2.0205 1.07191 4.4462 1.9323 5.4478 1.9323 3.3457 0 8.5643.7029 8.3072 1.11889-.1403.22698.1675.37863.684.337.5165-.0416 1.0277.35243 1.1359.87568.2513 1.21475-3.0085 3.30897-4.6899 3.01295-.6726-.11842-1.3133.0558-1.4237.387-.2603.78099-6.7035 1.00177-9.2806.31802-1.0944-.29035-6.7464-.59525-12.5599-.67754-9.8285-.13913-12.72669.14272-9.0519.8803.8351.16761 2.6362.55764 4.0026.86675 1.3664.3091 3.5402.57282 4.8307.58604 1.2905.0133 2.3464.27249 2.3464.57613 0 .30365.389.55209.8644.55209s1.3745.27295 1.9977.60654c1.1211.59995 1.1191.61364-.1743 1.25849-2.2648 1.12916-1.563 2.19438 2.2432 3.40458 1.9529.62094 3.6671 1.49048 3.8093 1.93228.1422.44181.4782.94737.7466 1.12347.8444.55408-.1664 2.25742-1.1221 1.8907-.4829-.18532-.7257-.18455-.5394.002.1863.18628-.2875.96491-1.053 1.7303-1.0067 1.00679-2.0449 1.41689-3.7542 1.48305-1.2996.0503-2.2625.25391-2.1397.45249.1227.19857-2.1545.23929-5.0605.0905-4.2248-.21631-5.4693-.10279-6.2097.5664-1.0282.9293-6.4501 1.31239-9.27832.65558-1.07993-.25079-1.86806-.17337-2.10288.20657-.20659.33424-.96172.60769-1.67808.60769-1.66093 0-3.04902.52958-3.04902 1.16324 0 .27115.3603.49301.80069.49301.44038 0 1.01152.37669 1.26914.83709.29067.51939 2.44882 1.22237 5.68627 1.85226 6.3786 1.24101 11.0742 3.13837 10.6302 4.29536-.1705.44435-.6636.67225-1.0956.50645-.4321-.1658-.6468-.0768-.4772.19756.1697.27446-.3428 1.27304-1.1389 2.21908-1.0654 1.26614-1.7402 1.6271-2.5571 1.3678-.6151-.1952-.9714-.12808-.7992.15054.1709.27653-.55331.52727-1.60941.55721-1.05606.0299-3.66392.48177-5.79527 1.00407l-3.87509.94965 1.23325 1.31269c.67822.72199 1.46289 1.31269 1.74365 1.31269.28071 0 1.36299.4046 2.40513.8991 1.81684.86216 1.86015.95168 1.05566 2.17954-.52866.80682-.63369 1.4073-.28403 1.62342.30527.18865.39565.60078.20093.91585-.22842.3696-.52549.30709-.83716-.17617-.31343-.48602-.62847-.55123-.89712-.18572-.22774.30983-1.15938.92275-2.07031 1.36207l-1.65625.79875 1.74731.18764c1.8919.20316 2.90332 1.61987 1.53208 2.14606-.46343.17784-.97998.18605-1.14775.0182-.16782-.16781-1.13208.15939-2.14282.72709-1.01075.56771-2.78189 1.20933-3.93584 1.42581-1.15406.21649-2.43272.72813-2.84151 1.137-.96855.96846-1.34761.94712-6.47744-.36488-4.60381-1.17746-5.90151-1.0677-7.79043.65883-1.06553.97391-1.49546 1.02188-4.38003.48864-3.78384-.69948-10.91235-.78908-10.50625-.13206.1561.25258 2.09614.76827 4.31123 1.14597 5.64341.9623 6.27852 1.16901 5.35181 1.74176-1.6064.9928 5.58672 3.33643 12.6166 4.11069 1.89834.20908 3.57192.57493 3.71904.81301.14717.23809-.25351 1.09527-.89033 1.90486-1.06953 1.35972-1.09004 1.54695-.26851 2.45471.48912.5405.88936 1.1186.88936 1.28468 0 .68229-9.34863-.2995-12.42187-1.30454-4.41924-1.44523-13.36763-2.50003-14.19449-1.6732-.43725.43733-.44116.81288-.0137 1.32807.5773.69561 1.46265.99316 8.82525 2.96604 2.29609.61526 3.45048 1.2028 3.45048 1.75612 0 .69929-.65141.77249-4.09624.46033-2.62441-.23781-4.22309-.16599-4.44926.19989-.1941.31409-.0488.57109.32368.57109.37221 0 .54814.12859.39096.28575-.37011.37013-8.18901-1.27074-8.96645-1.88168-.61128-.48037-8.67319-1.7221-10.39268-1.60072-.53139.0375-.96616.37911-.96616.75914s-.12851 1.02583-.28555 1.43511c-.27133.70706 6.4709 2.13654 18.08912 3.83523 1.74541.25519 4.07382.84017 5.17426 1.29995 1.10039.45977 2.77779.83733 3.72754.83903 2.50034.005 6.09151 1.09788 5.51133 1.67807-.2687.26869-3.63076.55934-7.47134.64588-3.84057.0865-6.94155.1995-6.89111.25102.0503.0515 1.31938.57591 2.81982 1.1653 2.61304 1.02638 2.67549 1.09976 1.48145 1.7388-.93516.50047-1.93442.51969-3.99907.0768-3.36011-.7206-3.80235-.73015-3.80235-.0821 0 .27952.74248.6713 1.64991.87061 3.01801.66286 2.3644 1.38159-1.2564 1.38159-2.10733 0-4.23828.35019-5.27344.86658-1.04741.52252-2.22217.71263-2.95889.47881-1.57495-.49986-27.49599-.6905-27.19287-.19998.64219 1.03912-6.60029 1.03379-12.78012-.01-12.515-2.11264-23.16295-3.31351-30.0317-3.38697-3.79561-.0406-9.50962-.41518-12.6979-.83245-3.18828-.41726-8.86822-1.01479-12.62207-1.32786-3.75391-.31306-6.9836-.66475-7.1771-.78154-.19351-.11679-2.21509-.37094-4.49243-.56478-2.27735-.19385-5.01016-.45753-6.0729-.58599-2.21231-.26739-12.28511-.82903-19.59893-1.09278-5.29062-.1908-13.32974-.6986-18.77075-1.18567-1.82188-.1631-8.90235-.40249-15.73438-.53199-6.83198-.12951-14.9062-.43909-17.94262-.68795-3.03648-.24888-11.43428-.42779-18.66182-.39757-10.93013.0456-13.22905.19182-13.66401.86861-.4438.69039-.59825.69696-1.01929.0434-.33052-.51313-1.04087-.66136-2.12778-.44397-.89956.17991-1.90274.0552-2.23589-.27795-.33238-.33236-1.42447-.65667-2.42686-.72073-1.00244-.0641-2.31948-.26357-2.92676-.44339-3.30849-.9797-6.75566-1.26458-8.14443-.67308-1.11479.47483-3.89741-.0861-3.51294-.70818.1416-.22917-2.51894-.48345-5.9123-.56506-9.13785-.21975-10.08545-.32017-11.11958-1.17847-.84068-.69769-.92456-.6656-.75821.28998.12681.72832-.0797 1.01129-.64101.87834-.45547-.10787-1.38711-.20103-2.07031-.20703-.68321-.006-1.24219-.2017-1.24219-.4349 0-.23321-.40029-.57762-.88955-.76537-.64599-.24789-.79892-.10502-.55843.52169.22823.59468.11858.72794-.35262.42856-.37607-.23897-3.0439-.5125-5.92853-.60784-6.0665-.20052-5.16473-.19791-33.67699-.0974-11.99399.0423-23.34325-.10251-25.22066-.32181-1.87735-.21929-3.83111-.23841-4.34168-.0426-.93965.36058-18.97483 1.07251-24.51586.96776-4.33335-.0819-9.24787 2.46563-6.51428 3.37682.40749.13582.12564.52649-.69011.95679-.75828.39997-1.51662.93694-1.68524 1.19324-.60927.92634-5.29721 1.44318-6.62835.73078-.83888-.44895-3.06178-.61019-6.5574-.47565-2.9086.11195-12.46217.33463-21.23016.49483-8.768.1602-16.54513.4427-17.28251.62776-.73739.18507-3.87148.37452-6.96466.42099-3.0932.0465-6.12085.36373-6.72815.70503-1.0866.61067-6.20657 1.61308-7.06372 1.38295-1.0563-.2836-3.0176-.21231-4.80603.1747-1.06277.22998-2.42916.37651-3.03646.32564-.60728-.0509-1.60103-.13633-2.20832-.1899-.60729-.0535-3.46431.19435-6.34894.55096-2.88463.3566-6.31883.6432-7.63156.63689-1.31273-.006-2.67914.22359-3.03645.5109-.35732.2873-1.45709.69502-2.44394.90603-1.4686.31403-1.79426.21409-1.79426-.55063 0-.82768-.45672-.88971-4.0026-.54356-2.20143.21491-7.97758.44799-12.8359.51797-4.85832.07-10.17151.41908-11.8071.77574-1.63557.35667-3.09451.64849-3.24206.64849-.14756 0 .0409.37266.41899.82813.37801.45547 1.52638.82811 2.55196.82811s1.86469.10391 1.86469.23089c0 .12699.1508.62387.33511 1.10417.45959 1.19769-1.09487 1.13881-2.32162-.088-.69501-.69501-1.02478-.77051-1.19075-.2726-.12625.37873-.45675.54819-.73446.37655-.27765-.17149-.50487-.11093-.50487.13472 0 .24566-.55899.4771-1.24219.51433-.6832.0372-4.47186.34887-8.41925.69253-3.94738.34366-11.89736.72434-17.66662.84597-5.76925.12161-11.11065.35733-11.86976.52382-2.57206.56411-16.71356 1.87221-24.29161 2.24701-14.04184.69448-24.68756 2.70279-26.88272 5.07139-.68665.74091-1.8965 1.33915-2.76532 1.36739-7.14428.23216-17.0654.97619-21.41953 1.60632-1.82187.26367-5.01792.63173-7.10233.81793s-5.03745.57515-6.56231.86434c-1.52487.28918-2.8628.52579-2.97318.52579-.11037 0-.20068-.63576-.20068-1.41279zm0-5.02318c0-.60393-.24454-.64907-1.08361-.20002-.64743.3465-.95481.91556-.76365 1.41372.24655.64249.49516.68839 1.08361.20002.42-.34857.76365-.98474.76365-1.41372zm93.0258-8.21126c2.15989-.77471 2.1054-.78603-2.48437-.5169-10.5103.6163-13.80205.92853-13.80205 1.30919 0 .72025 13.96327.0409 16.28642-.79229zm-256.44205-6.66699c0-.11934-.37266-.21697-.82813-.21697s-.82812.24064-.82812.53475.37265.39175.82812.21697.82813-.41542.82813-.53475zm40.02594-1.87322c.19271-.31182-.25945-.55208-1.03901-.55208-.75911 0-1.53374.24843-1.72141.55208-.19271.31182.25945.55209 1.03901.55209.75911 0 1.53374-.24844 1.72141-.55209zm-26.2239-2.82477c0-.56965-.66104-.6231-1.88713-.15262-1.38534.53161-1.01352 1.19484.50692.90418.75912-.14511 1.38021-.48331 1.38021-.75156zm312.38775-.0899c1.88384-.52475 2.14251-.72633 1.21434-.94632-1.47315-.34915-19.03834.38871-28.45178 1.1952-2.55799.21915 17.19686.75425 21.25516.57575 1.9737-.0868 4.66572-.4579 5.98228-.82463zm19.13744-1.6991c.6073-.14367-.51067-.24099-2.48436-.21624-4.71083.0591-6.57559.56624-3.58854.97605 1.21458.16663 2.82943.12262 3.58854-.0978s1.87708-.51833 2.48436-.662zm-352.32113.1622c1.13677-.0332 1.12937-.062-.14714-.57201-1.50522-.60136-2.79644-.30182-2.79644.64875 0 .34627.39213.478.87328.29337.48029-.18431 1.41193-.35085 2.0703-.37011zm360.61476-.62148c.14765-.14767-.83504-.31021-2.18378-.36123-1.34873-.051-2.62391.185-2.83372.52448-.26812.43382.38079.54116 2.18377.36122 1.41088-.14079 2.68606-.3768 2.83373-.52447zm431.71565-6.52059c.21128-.34187-.66968-.5272-2.31377-.48675-2.35699.058-2.46909.11261-.99873.48675 2.41577.61471 2.93261.61471 3.3125 0zm-850.930745-8.10627c-.39854-.15948-.8747-.13987-1.05815.0436-.18346.18346.14261.31394.7246.28997.64315-.0265.77396-.15731.33355-.33354zm6.52146-.72704c1.10955-.35533 1.16368-.44519.27605-.45824-.6073-.009-1.60104.19729-2.20833.45824-1.40683.60455.0446.60455 1.93228 0zm7.40796.21699c.48031-.18432.87328-.78177.87328-1.32768 0-.84566-.34725-.94916-2.34635-.69931-2.53685.31707-4.19228 1.25792-2.21331 1.25792.6501 0 1.33554.24844 1.52321.55208.39273.63547.93171.68954 2.16317.21699zm896.902205-9.60238c0-.30364-.43477-.54827-.96612-.54362-.82563.007-.84575.0862-.13804.54362 1.0419.67333 1.10416.67333 1.10416 0zm-883.22754-22.46041c-.39853-.15947-.87471-.13986-1.05815.0436-.18345.18346.14262.31393.72461.28997.64314-.0266.77396-.15732.33354-.33355zm-4.52016-1.61074c0-.89983-1.53547-1.00102-3.55259-.23411-2.195945.83489-1.674795 1.42239 1.06822 1.20423 1.66668-.13255 2.48437-.45186 2.48437-.97012zm10.25469.39827c-.55127-.89198-2.52554-1.11946-2.52554-.29099 0 .46492.56682.77643 1.41278.77643.77703 0 1.27778-.21845 1.11276-.48544zm-4.18179-.61872c.61598-.39807.29778-.53734-1.24219-.54363-1.13866-.005-2.0703.23999-2.0703.54363 0 .70319 2.22439.70319 3.31249 0zm920.32052-64.59358c0-.30364-.2484-.55208-.5521-.55208-.3036 0-.552.24844-.552.55208s.2484.55208.552.55208c.3037 0 .5521-.24844.5521-.55208zm4.0026-10.30311c-.3795-.15315-1.0006-.15315-1.3801 0-.3796.15316-.069.27847.69.27847.7592 0 1.0697-.12531.6901-.27847zm-8.2812-6.64897c-.6832-.13159-1.8011-.13159-2.4843 0s-.1243.23926 1.2421.23926 1.9254-.10767 1.2422-.23926zm-25.5338-4.45679c0-.23636-2.04958-.72437-4.55466-1.08447-2.50508-.36009-5.15254-.82693-5.88321-1.03741-.825-.23765-1.20058-.17568-.99091.16352.18569.30043 2.52255.8623 5.19306 1.2486 2.67056.38629 5.10392.78111 5.40762.87735.3036.0963.6142.19461.6901.21858.076.0239.138-.1498.138-.38617zm-805.21146-5.09106c.98592-.42367.94507-.47864-.38148-.51327-.81711-.0214-1.63919.20962-1.82685.51327-.40735.6591.67452.6591 2.20833 0zm801.34689-3.23454c0-.26078-2.49327-.75765-5.54058-1.10417-6.86387-.7805-8.09644-.79625-7.39468-.0945.29453.29454 3.26333.75668 6.59736 1.02701 3.33404.27031 6.12398.52621 6.19991.56865.0759.0425.13799-.13619.13799-.39696zm-832.32035-6.61092c.15639-.25304-.0773-.46007-.5195-.46007-.44211 0-.80384.20703-.80384.46007s.23378.46007.5195.46007.64745-.20703.80384-.46007zm73.86332-1.02123c-.39854-.15948-.87471-.13988-1.05816.0435-.18345.18346.14262.31395.7246.28997.64316-.0266.77397-.15731.33356-.33354zm-85.67621-.72703c0-.30365-.43477-.54828-.96614-.54364-.82568.007-.84575.0862-.13803.54364 1.04189.67332 1.10417.67332 1.10417 0zm2.20832-.86071c0-.1339-.24843-.24345-.55208-.24345-.30364 0-.55208.26309-.55208.58465 0 .32158.24844.43113.55208.24346.30365-.18765.55208-.45076.55208-.58466zm31.46867-3.84395c.75911-.21221 3.11927-.59317 5.24479-.84658 2.1255-.25342 4.7341-.72339 5.79685-1.04434s1.93229-.56279 1.93229-.5374c0 .21162 3.7816-.96973 5.65883-1.76778 2.84817-1.21084 3.02805-2.14086.41407-2.14086-1.34953 0-1.93229-.24976-1.93229-.82813 0-.84902 2.47091-1.18467 6.57244-.89277 1.78683.12715 6.88496-.82437 8.05217-1.50284.87182-.50673-1.91427-1.07812-5.54859-1.13789-2.36435-.0391-4.37896.34981-6.86769 1.32515-1.93702.75913-4.03373 1.38403-4.65935 1.38867-.90603.007-.97435.11167-.33575.51563.44097.279.99995.38471 1.24218.23501.24224-.14971.44043-.0371.44043.2498 0 .49434-1.20846.84336-5.4252 1.56704-1.01017.17334-1.97082.66475-2.13479 1.09204-.24375.63521-.45619.64844-1.16512.0727-.72614-.58979-.81419-.56284-.54187.16567.23786.63643.006.84517-.86278.77774-.65335-.0507-2.01228.1332-3.01985.40864-1.27037.34732-2.07422.29971-2.62238-.15522-.44457-.36895-.79047-.41768-.79047-.11133 0 .60903-4.2065 2.35093-5.67729 2.35093-.52124 0-.94769.33964-.94769.75478 0 .56196.74032.71548 2.89843.60098 1.59414-.0846 3.51952-.32735 4.27863-.5396zm22.71084-20.02188c-.3983-.13276-.98666.021-1.30748.34195-.40968.40966-.19413.48149.72418.24135.74652-.19521.99678-.44545.5833-.5833zm666.83837-2.18745c0-.22773-.75478-.46684-1.67607-.53139-.95869-.0672-1.53452.10986-1.34653.41406.38491.62275 3.02422.72524 3.0226.11733zm-665.2576-3.47798 1.38021-.0425-1.28779-.51616c-1.45478-.58315-3.957-.13393-3.957.71035 0 .30782.55525.40782 1.24219.22373.6832-.1831 1.86327-.352 2.62239-.37544zm660.84203.11949c0-.25303-.37266-.46006-.82808-.46006-.45547 0-.82812.20703-.82812.46006 0 .25302.37265.46005.82812.46005.45542 0 .82808-.20703.82808-.46005zm2.31186.0829c-.39853-.15948-.8747-.13985-1.05815.0435-.1835.1835.14263.31397.72461.28999.64316-.0264.77392-.15732.33354-.33354zm-653.66498-1.10415c-.39854-.15953-.87471-.13985-1.05817.0435-.18344.18345.14263.31397.72461.28994.64315-.0264.77397-.15727.33356-.33349zm-61.93669-.72705c0-.30362-.24844-.55206-.55209-.55206-.30364 0-.55208.24844-.55208.55206 0 .30366.24844.55209.55208.55209.30365 0 .55209-.24843.55209-.55209zm14.35413-1.44776c0-.61855-1.03682-.0762-1.33378.69776-.29076.75766-.20998.79184.49302.20839.46241-.38374.84076-.79155.84076-.90615zm5.52081.0676c0-.45547-.0977-.82813-.21697-.82813-.11934 0-.35997.37266-.53476.82813-.17477.45547-.0772.82812.21697.82812.29413 0 .53476-.37265.53476-.82812zm722.77874-18.87188c-.39854-.15952-.87471-.13984-1.05816.0435-.18345.18345.14263.31397.72461.28994.64316-.0264.77398-.15727.33355-.33349zm-508.31848-11.17856c.17469-.28267.0912-.65386-.18561-.8249-.27678-.1711-.64569.0602-.8198.51391-.34323.89444.48625 1.15103 1.00541.31099zm-262.0489 236.94302c-.31773-.37955-.36094-.69765-.096-.70688.26491-.009.0171-.2867-.55072-.61658-1.45659-.84626-.16617-1.57169 2.68862-1.51148 1.491.0314 1.84967.16321 1.10417.40561-1.05192.34204-1.83606 1.74754-.96615 1.7317 1.62102-.0296 2.7917-.75111 2.53912-1.56509-.2466-.79474-.18075-.78775.51313.0544.94293 1.14444 5.14411 1.35502 5.50726.27605.18445-.54806.40892-.54434 1.09051.0182 1.07471.88681 1.70891 3.04159.79609 2.70484-.35565-.1312-.56616-.57319-.46779-.98218.12509-.52004-.12831-.46563-.84283.18101-.81591.73837-2.00014.90206-5.8797.81262-3.08507-.0711-5.06884-.36384-5.43569-.80209zm-7.57862-1.21688c-.73543-.45452-.38176-1.68154.48467-1.68154.62977 0 1.18266 1.55893.66612 1.87817-.22898.14152-.74683.053-1.15079-.19663zm11.68091-4.44195c-.61063-.97779-.54684-1.11379.55731-1.18826.68577-.0462 1.61951-.12467 2.07498-.17427 1.47271-.1604 1.74981.34408.77852 1.41734-1.22701 1.35582-2.54305 1.33468-3.41081-.0548zm334.43353-4.10803c0-.13391.24843-.397.55208-.58467.30365-.18766.55209-.0781.55209.24346s-.24844.58467-.55209.58467-.55208-.10956-.55208-.24346zm6.47776-.37714c.37449-.37729.81997-.54692.98995-.37694s-.13643.47868-.6809.686c-.78682.2996-.85024.23619-.30905-.30906zm-296.32077-1.52014c0-.26646.38318-.8025.85151-1.19118.66201-.54941.99889-.55933 1.51362-.0446.51473.51474.47881.77797-.16142 1.18274-1.04109.65819-2.20371.68618-2.20371.053zm623.30049-5.03633c0-.30365.35796-.55208.79556-.55208.4375 0 .94907.24843 1.13672.55208s-.17031.55209-.79556.55209c-.62519 0-1.13672-.24844-1.13672-.55209zm-9.3854-.58639c0-.62848 1.48311-.69245 1.86148-.0803.14873.24061-.20933.47362-.79556.51778-.58628.0442-1.06592-.15271-1.06592-.43748zm-547.50283-.89083c-.49683-1.29469.26019-1.48465 2.16838-.54412.9954.49062 1.56137.9294 1.25772.97506-2.3267.34992-3.16702.24423-3.4261-.43094zm477.38843-1.28319c0-.30365.10952-.55208.24346-.55208.13388 0 .39702.24843.58466.55208.18765.30365.0781.55209-.24345.55209-.32154 0-.58467-.24844-.58467-.55209zm-7.95942-.47798c-.2378-.38481-.28326-.84874-.10103-1.03097.49404-.49409 1.03276.23259.76597 1.03319-.18706.56101-.31709.56058-.66494-.003zm2.02456.11235c-1.13023-.45606-.78223-1.21132.41406-.89849.60727.1588 1.10415.5082 1.10415.77643 0 .52634-.43052.56095-1.51821.12206zm264.67724-2.76283c-.63525-.63524-.40205-1.28819.46006-1.28819.45547 0 .82812.37265.82812.82812 0 .86211-.65293 1.09531-1.28818.46007zm-685.15483-3.38191c-.14871-.24062.21466-.47403.80747-.51868.59282-.0446.9336.15221.7573.43748-.39118.63295-1.1979.67481-1.56477.0812zm4.97644-.94832c.1736-.45239.72383-.84168 1.22272-.86506.49889-.0234 2.02504-.15442 3.39144-.29119 1.79171-.17934 2.25348-.0929 1.65625.3101-.68322.46101-.69128.56027-.046.56724.43015.005.62729.16327.43806.3525-.18922.18923-1.83671.43515-3.66108.54651-2.76339.16866-3.26434.0651-3.00139-.6201zm-225.304375-1.33647c-.4083-.66063.63027-1.31519 1.36563-.86071.61742.38159.21209 1.37465-.56109 1.37465-.2678 0-.62985-.23128-.80454-.51394zm5.22119-14.3597c0-.28572.2456-.67129.54577-.85679.31296-.19342.4055.0282.21697.5195-.36701.95643-.76274 1.13142-.76274.33729zm4.04861-.28433c0-.44212.21108-.67338.46907-.51394s.32614.52117.15145.80384c-.44643.72233-.62052.641-.62052-.2899zm962.094775-72.07098c-.4555-.29434-.5797-.53518-.276-.53518.3036 0 .9247.24084 1.3801.53518.4555.29435.5797.53518.2761.53518s-.9247-.24083-1.3802-.53518zm-907.07062-40.97154c0-.23904.49687-.4346 1.10417-.4346.60728 0 1.10416.233 1.10416.51776 0 .28478-.49688.48035-1.10416.4346-.6073-.0458-1.10417-.27874-1.10417-.51776zm23.11935-8.10787-1.29459-1.04829 3.30373-.43858c1.81705-.24121 4.60773-.45268 6.2015-.46993 1.59377-.0173 2.89806-.20035 2.89843-.40688.00053-.42984 3.28894.42622 3.80219.98986.18651.20481-.42731.22689-1.36402.0491-1.04846-.19903-2.32175.004-3.3125.52735-.88516.46787-2.91367.87472-4.5078.9041-1.59414.0294-2.89844.25329-2.89844.49751 0 .79142-1.50093.47079-2.8285-.60421zm-6.95945.16265c.18345-.18345.65962-.20306 1.05815-.0435.44042.17623.3096.30705-.33354.33354-.58198.0239-.90806-.10651-.72461-.28996zm-10.04341-7.62563c-.0239-.58198.10651-.90806.28996-.72461.18346.18346.20307.65963.0436 1.05816-.17624.44041-.30706.30959-.33355-.33355zm15.0778-4.64023c.15419-.24947-.22806-.88891-.84944-1.42094-1.11168-.95186-1.07505-.99327 2.28618-2.58286 4.04827-1.91451 4.42099-1.95762 4.42099-.51133 0 .68032-.37087 1.10742-.96614 1.11259-.78306.007-.81813.1022-.18508.50289.42959.27192 1.23701.40659 1.79427.29931.55725-.10732 1.01319.058 1.01319.36753 0 .30947-.80741.51846-1.79426.46445-.98685-.054-2.29114-.0692-2.89844-.0337-.91987.0536-.96594.15371-.27603.59956.70771.45738.68765.53638-.13803.54361-.53138.005-.96614.25693-.96614.56055 0 .30365-.38732.55208-.8607.55208-.47339 0-.73455-.20412-.58037-.4536zm7.0592-4.45498c-.55502-.34301-.53339-.57329.10345-1.10185.89334-.74141 1.60523-.0938.99042.90088-.21919.35468-.70172.44331-1.09387.20097zm-19.14414-23.2476c-.18766-.30367.0315-.5521.48693-.5521.45547 0 .98166.24843 1.16932.5521.18766.30366-.0314.5521-.48692.5521-.45547 0-.98166-.24844-1.16933-.5521zm11.30719-2.47173c.79508-.95796 1.11466-1.05767 1.11466-.34776 0 .2712-.40779.64952-.90621.84078-.75773.29077-.79188.21001-.20845-.49302zm780.25772-8.90938c.64712-.64717 4.18203-1.15429 4.89517-.70234.41045.26006.49775.50132.19414.53608-2.97149.34068-5.34112.41807-5.08931.16626zm-3.35166-.6811c-.45894-.29116-.11572-.45161.96616-.45161.92285 0 1.67793.20703 1.67793.46006 0 .58759-1.71328.58213-2.64409-.009zm-14.19438-.70483c-2.36348-.52906-8.10074-.90855-18.821-1.24478-3.67129-.11519-7.2062-.49365-7.85532-.84102-.7064-.37807-3.17964-.57041-6.16074-.4791-2.73936.084-4.98057.0962-4.98057.0269 0-.19209 3.21225-1.80987 3.5937-1.80987.18481 0 .18247.24844-.005.55206-.19908.32211.36235.5521 1.34765.5521.92881 0 1.68882-.24844 1.68882-.5521 0-.30362.26314-.55206.58467-.55206.32158 0 .3981.31055.17007.69009-.30654.51026-.20713.54444.38144.13101.43785-.30752 1.29297-.53062 1.90025-.49575.60732.0347 2.42314.10005 4.0352.14502 1.61206.0449 2.81568.26801 2.67466.49575-.14101.22773 1.2728.37768 3.14185.33325 1.86904-.0449 3.83305.15068 4.3644.4335.64482.34331.96616.31342.96616-.0897 0-.33228.30034-.41851.66734-.19165.36709.22686 2.78935.48022 5.38281.56309 2.59351.0828 4.71543.18002 4.71543.21601 0 .0361 1.24219.1459 2.76045.24434 1.51821.0984 2.82251.23393 2.89839.30122.12954.11479.69834.28203 1.65625.48696.4393.094-2.15215 1.69741-2.62237 1.62261-.15185-.0244-1.26977-.26636-2.48437-.53823zm-22.35933-2.76026c0-.26567-.48218-.48306-1.07158-.48306-.58936 0-1.20591.21739-1.37012.48306-.16426.26572.31802.48306 1.07153.48306.75362 0 1.37017-.21734 1.37017-.48306zm29.53081-1.59624c-.19072-.30859-.57803-.41816-.86069-.24346-.28267.17471-.51397.0692-.51397-.23442 0-1.0689.89077-1.08584 1.55044-.0293.36699.58765.55562 1.06841.41914 1.06841-.13647 0-.4042-.25249-.59492-.56103zm-11.81821-2.15327c-.58194-.58203-1.17334-.94297-1.31416-.8022-.14077.14087-1.46577.33931-2.94444.44112-2.56128.17636-5.73701-.96104-4.93173-1.76626.64453-.64458 4.45717-.49371 5.28999.20927.85268.71978 2.40634.74366 3.10224.0474.58589-.58584 3.40205-.45738 3.7916.17299.53033.85806-.25771 2.75547-1.14443 2.75547-.43496 0-1.26704-.47617-1.84907-1.05815zm5.69814.42075c-.23511-.38047-.15229-.48813.20532-.26709.32959.20376.75533.11787.946-.19072.51445-.83237 1.20176-.67959 1.20176.26704 0 .97251-1.78072 1.11685-2.35308.19077zm-645.45754-4.11279c.18345-.1835.65962-.20313 1.05816-.0435.44041.17622.3096.30703-.33355.33355-.58199.0239-.90806-.1065-.72461-.28999zm111.37102-15.67691c0-.30361.10956-.55205.24346-.55205.13391 0 .397.24844.58467.55205.18767.30367.0781.5521-.24346.5521s-.58467-.24843-.58467-.5521zm12.87351.0559c-.89118-.65478-.67805-1.5957.30332-1.33911.62581.16372 1.02732-.0615 1.08529-.60864.0506-.47769.13342-1.24116.18403-1.69663.0506-.45547.54748-.85913 1.10417-.89712.55668-.0381 1.19847-.12031 1.4262-.18301.22774-.0628 1.15938-.31435 2.07031-.55923 2.02568-.54443 3.12595-1.35771 2.72175-2.01172-.1664-.26923.18829-.4895.7882-.4895.5999 0 1.21674.3105 1.37075.69009.19455.47949.41923.50928.73611.0978.81054-1.05268 2.50087-1.38125 3.39246-.65932.71575.57944.78298.56499.39153-.0844-.35898-.59546-.24089-.69502.49126-.41406.53012.20347 1.29944.36987 1.70961.36987s.89537.47134 1.07822 1.04747c.21371.67333.68709.95468 1.32539.78779 1.40918-.36851 1.2634-1.73355-.15722-1.47212-1.12253.20654-1.12363.19897-.046-.31304.60729-.28852 1.94505-.54204 2.9728-.56338 1.02774-.0215 3.3879-.28247 5.24477-.58032 4.81276-.77183 16.91089-2.12441 22.42297-2.50684 2.58098-.179 5.81067-.42397 7.17707-.54438 2.87874-.25361 8.56186-.65732 16.01038-1.1373 2.88462-.18589 6.85962-.47481 8.83331-.642 4.74355-.40185 12.21079-.43183 13.24997-.053.45547.16601 1.88397.49257 3.17446.72578 1.2905.23315 2.34636.60674 2.34636.83017 0 .22339-.61419 1.02041-1.36486 1.77105-1.11114 1.11118-1.88125 1.35478-4.14292 1.31054-1.65194-.0327-2.70257.17232-2.59182.50474.10243.30742 2.09898.57944 4.43678.6044 3.67143.0391 6.11675.75341 5.28225 1.54262-.3733.35313-7.69249.70205-7.69109.3667.00049-.16421-1.67627-.2208-3.72656-.12583-2.05029.095-5.15302-.0529-6.89498-.3293-1.74194-.27612-3.28503-.38418-3.42908-.24008-.14404.14399-1.3274.31425-2.62968.37832-1.30227.0641-3.05419.30844-3.89317.54311-.90717.25376-1.80958.19087-2.22657-.15522-.38566-.32002-3.10325-.63931-6.03912-.70952-3.63432-.0868-5.2245-.31724-4.98254-.72193.19548-.3268-.0663-.25219-.58169.16592-.64465.5229-1.63799.6481-3.18305.40103-1.47496-.23584-2.12607-.16514-1.89672.20595.39093.63252.31819.64463-4.68465.77906-1.97369.053-4.14751.29174-4.83071.53051s-1.24219.23106-1.24219-.0171c0-.24819-.62109-.45127-1.3802-.45127s-1.38021.18633-1.38021.41407c0 .22773-.38731.41406-.8607.41406s-.73099-.20982-.57245-.46641c.38317-.61997-5.28829.29053-5.69996.91509-.75363 1.14336-11.0856 2.302-11.0856 1.24316 0-.32314-.2631-.58769-.58467-.58769s-.44173.2313-.26704.51396c.49941.80806-.77079 1.30557-1.59237.62369-.55116-.45743-.81017-.42945-1.01707.10971-.17866.46553-1.08715.67818-2.54885.59644-1.24918-.0698-2.27123.10508-2.27123.38867 0 .91299-2.83637.31343-3.3873-.71597-.29297-.54741-.7727-.84697-1.06607-.66567-.29336.1813-.40654.53491-.25151.78574.15504.25083-.0814.59551-.52539.76587-.444.17041-.95654.0683-1.13899-.22695-.20225-.32725-.90947-.2148-1.81195.28803-1.69821.94629-6.98014 1.95171-7.65355 1.45689zm-7.90476-2.50761c0-.96973.33127-1.1125.80454-.34678.1747.28267.0651.67002-.24346.86069-.30859.19073-.56108-.04-.56108-.51391zm2.08049-.95367c.32081-.32084.90918-.4747 1.30747-.34194.41348.13784.16322.38809-.5833.5833-.91831.24014-1.13385.16826-.72417-.24136zm190.18203-1.40083c-.6832-.13159-1.24219-.4289-1.24219-.66064 0-.67563 2.39951-.30835 2.63686.40361.11858.35567.13277.6128.0314.57144-.1012-.0415-.743-.18281-1.42619-.31441zm-11.4557-1.26665c1.51773-.65214 2.38941-.65214 1.3802 0-.45547.29439-1.20078.52159-1.65624.50484-.54606-.02-.45199-.19195.27604-.50484zm3.34429.0514c-.17015-.27534.18787-.37056.79555-.21162 1.28911.33711 1.45209.71226.30939.71226-.43752 0-.93473-.2253-1.10494-.50064zm-71.07278-1.24936c-.86901-.87344-.47455-.93404 6.34894-.97515 4.00154-.0244 7.82928-.15088 8.5061-.28169s1.3594-.0293 1.51687.22544c.15747.25478 1.04654.4106 1.9757.34624 2.51212-.17388 2.52406.62988.0129.86938-1.18735.11324-2.04083.0147-1.89663-.21835.45321-.73331-.39693-.46124-1.26205.4039-.93922.93921-3.27134 1.1083-3.78663.27456-.22716-.36758-.70575-.35903-1.4242.0254-1.22231.65415-2.37302.20962-1.81108-.69961.24574-.3976.10944-.4354-.40506-.11245-.42646.26773-2.1418.6188-3.81184.78018-2.38981.23086-3.23378.0951-3.96304-.63794zm44.26501.64575c0-.30362.10955-.55205.24346-.55205.13389 0 .397.24843.58466.55205.18766.30366.0781.5521-.24346.5521s-.58466-.24844-.58466-.5521zm-22.08328-1.10415c-.49759-.32154-.56567-.53858-.17061-.54365.36164-.005.81107.23999.99873.54365.42362.68545.23249.68545-.82812 0zm215.63447-.0753c.28569-.4622-1.81772-1.0059-2.2437-.57988-.5936.59356-3.04756.70571-3.04756.13921 0-.35039-1.5708-.43481-4.27861-.22988-3.31963.25127-4.71177.12178-6.21094-.57749-1.06274-.49566-1.51357-.78731-1.00181-.6481.51177.13921 1.00865.0371 1.10415-.22656.0955-.26377.54634-.56035 1.00181-.65908.45547-.0986 1.01064-.42783 1.23374-.7315.2231-.30366.40942-.008.41406.65738.008 1.14331.0915 1.16606 1.52666.41631 1.36197-.71148 1.59693-.6939 2.28262.17075.72695.91675.7481.91665.4314 0-.25703-.74561-.0283-.96612 1.00244-.96612.73452 0 1.58867.43477 1.89819.96612.31231.53618.57017.65903.57949.27607.0176-.72295 1.67305-.99614 1.67305-.27607 0 .22773 1.87813.3997 4.17363.38217 2.29551-.0176 4.29761.16875 4.44922.41407.15161.24526.80752.44594 1.45762.44594.9456 0 1.04399.13804.49189.69009-.69096.69097-7.35615 1.01651-6.93735.33882zm9.06289-.0166c0-.25307.18633-.47685.41406-.49736.22774-.0205 1.20894-.14126 2.18047-.26831 2.18433-.28579 2.96197.66133.86074 1.04829-2.07739.38257-3.45527.26992-3.45527-.28262zm-39.74941-1.84033c.00009-.30361-.93159-.55205-2.07041-.55205-1.13892 0-2.25323.24844-2.47632.55205-.27041.36807-.40884.36807-.41533 0-.0122-.69165-3.31968-.85527-3.31968-.16416 0 .27798-.22578.36587-.50171.19531-.52583-.32495-5.38208-.84668-10.53994-1.13237-1.67002-.0925-3.03643-.22397-3.03643-.29219 0-.37002-7.26406-.37573-7.72881-.006-.82959.65992-6.34928 1.12032-6.34928.52954 0-.28066-.37266-.51025-.82813-.51025s-.82812.2397-.82812.53276c0 .33262-3.88859.43457-10.35154.27149-5.69335-.14365-10.95082-.2586-11.68327-.25542-.73244.005-2.16095-.22329-3.17447-.50313-1.10819-.30595-1.84273-.30786-1.84273-.005 0 .50171-1.93091.42046-2.45461-.10332-.15111-.15107-2.66347-.18638-5.58304-.0784-3.51875.13013-5.57128-.022-6.08842-.45117-.60757-.5043-.78202-.47988-.78859.11025-.006.47872-.15779.54537-.41406.18096-.24353-.34614-3.38432-.60415-7.85873-.64541-4.0992-.0376-16.52105-.21094-27.60409-.38457-11.08304-.17358-25.30605-.34878-31.60669-.38921-6.30063-.04-11.45627-.22895-11.45695-.41894-.00049-.19009-1.36716-.34556-3.0366-.34556-1.66943 0-3.03527.18633-3.0352.41406.00008.22774-.26296.41407-.58452.41407s-.43112-.24844-.24345-.5521c.18766-.30362-.0461-.55206-.5195-.55206-.47339.00025-.86071-.24819-.86071-.5518 0-.30366-.2631-.5521-.58467-.5521-.32156 0-.43111.24844-.24345.5521.20154.32607-.40658.54863-1.48564.5436-1.38263-.007-1.62548-.13857-.99873-.5436.61164-.39527.63741-.5374.0986-.54365-.56184-.007-.53918-.19883.0986-.83658.45547-.45546 1.34274-.82812 1.97173-.82812.62897 0 1.14359-.26519 1.14359-.58931 0-.34956.47719-.43779 1.1733-.21684.78956.25058 1.04975.17246.79554-.23882-.20777-.33623-.23087-.61128-.0514-.61128.17952 0 .51543.51094.74645 1.13545l.42004 1.1355 1.45586-1.14522c.99802-.78496 1.57653-.94995 1.83952-.52441.27201.44013.51834.40283.84657-.12827.3762-.60874 4.16399-.74522 20.21999-.72847 10.8664.0117 24.22894.18013 29.69455.37524 5.46561.19507 14.53355.49873 20.15099.67481 20.28393.63564 25.50927.86665 25.96375 1.14756 1.01578.62768 5.4644 1.18447 6.13799.76816.41517-.25654.89879-.16494 1.14662.21724.31988.49321.56661.45078.97227-.16719.29901-.45547.54777-.57969.5528-.27603.006.34844 3.42026.52745 9.25582.48536 9.22237-.0666 24.98043.8246 24.9816 1.41289.00035.17055 1.92574.28212 4.27862.24804 4.03232-.0585 13.32085.69702 14.96777 1.21753.60747.19204.61899.39844.06 1.07207-.56343.67886-.54931.78902.0759.5916.42251-.13339 1.46152-.39482 2.30894-.5809.94931-.2085 1.41831-.59703 1.22163-1.01226-.17559-.37065-.0298-.28501.32431.19019.52041.69887 1.22979.78457 3.70904.44814 1.74345-.23657 3.483-.19258 4.03349.102.53238.28496 1.66743.55186 2.52246.59321 1.43199.0692 1.44956.095.22281.32618-1.03047.19423-1.15533.36264-.55205.74448.85351.54028.13613.60796-7.63956.72056-2.71245.0391-4.55449-.15738-4.55429-.48619zm-160.45548-4.96553c-.17411-.45376-.53897-.6875-.81079-.51948-.7795.48174-.57637 1.34439.31656 1.34439.4925 0 .68651-.32383.49423-.82491zm-32.19918 1.88721c.56816-1.06167.53441-1.18223-.24703-.88237-.77949.29912-.81461.17822-.25304-.8711l.65208-1.2184.54923 1.23086c.63015 1.41215 1.77023 1.61748 2.23639.40268.17477-.45547.11853-.82812-.12497-.82812-.24351 0-.44275-.37569-.44275-.83492 0-.6788.49884-.76875 2.66841-.48095 1.82295.24179 2.66839.15649 2.66839-.26919 0-.34619.87351-.62324 1.96487-.62324 1.28816 0 1.83563.20913 1.58962.60717-.2668.43164-.0404.42798.78312-.0127.96247-.51509 1.1038-.47774.83568.22094-.17748.46246-.54454.84087-.8157.84087s-.49302.24844-.49302.55205c0 1.15083.99773.4857 1.65625-1.10415.76803-1.85415.7878-1.86435 2.17181-1.12368.69814.37364.91389.95703.72308 1.95518-.14958.78247-.0547 1.35029.21084 1.26172.26554-.0885.60702.0818.75884.37861.16328.31914-1.14895.57778-3.21224.6332-3.189.0856-3.54002-.02-4.09122-1.22964-.59426-1.30429-2.63401-1.87626-2.63401-.73867 0 .32163.24559.43291.54576.24742.30797-.19039.40833.021.23035.48461-.18429.48028-.67832.68272-1.18841.48692-.5675-.21773-.7368-.1146-.48381.29477.44412.71861-1.39066 1.24922-3.52055 1.01812-.75911-.0823-1.83377.0711-2.38814.34097-.90319.43969-.93954.36298-.34983-.73892zm15.10295-2.07441c.15639-.25303-.0665-.46006-.49522-.46006-.42875 0-.6516.20703-.49521.46006.15639.25302.37924.46006.49521.46006.11598 0 .33883-.20704.49522-.46006zm-22.5397 2.17905c-.16633-.26914.19269-.61875.79781-.777.73282-.19165.98757-.58135.76286-1.1669-.18557-.48359-.10377-.87925.18174-.87925.75725 0 .63485 1.80342-.17753 2.61583-.82404.82402-1.15653.86806-1.56488.20732zm3.3854-1.53496c.15536-.40488.35354-.73613.44038-.73613.0868 0 .28502.33125.44038.73613.15537.40488-.0428.73613-.44038.73613-.39756 0-.59574-.33125-.44038-.73613zm2.12912-1.54668c.58942-.4458 1.61599-.81846 2.28127-.82813 1.31686-.0195 2.15592.81807 1.33093 1.32798-.28267.17466-.60914.0322-.7255-.31709-.15899-.47695-.50464-.47788-1.39106-.005-1.69703.90825-2.76432.78027-1.49564-.1793zm-7.33608-.0751c.18346-.18345.65963-.20307 1.05816-.0435.44041.17622.30959.30704-.33355.3335-.58198.0239-.90806-.10649-.72461-.28994zm29.11082-.21855c-.70771-.45733-.68765-.53643.13803-.54366.53137-.005.96614.23999.96614.54366 0 .67334-.0623.67334-1.10417 0zm-2.96496-.84087c-.26326-.68609-.12164-.73335.76906-.25664 1.27976.68491 1.40107 1.09751.32269 1.09751-.42299 0-.91427-.37842-1.09175-.84087z" fill="#ff0"/></svg>